<svg width="30" height="30" viewBox="0 0 30 30" fill="none" xmlns="http://www.w3.org/2000/svg">
<path d="M27.1417 13.1L24.35 12.2667C24.157 11.5928 23.8916 10.9417 23.5583 10.325L24.925 7.76667C24.9763 7.6701 24.9951 7.55958 24.9786 7.45149C24.962 7.3434 24.9111 7.24352 24.8333 7.16667L22.8417 5.16667C22.7648 5.0889 22.6649 5.03797 22.5569 5.02146C22.4488 5.00495 22.3382 5.02372 22.2417 5.07501L19.7 6.43334C19.0772 6.08389 18.4176 5.80441 17.7333 5.60001L16.9 2.84167C16.8648 2.74002 16.7982 2.65217 16.7098 2.59077C16.6215 2.52938 16.5159 2.4976 16.4083 2.50001H13.5917C13.4835 2.50051 13.3782 2.53553 13.2913 2.59998C13.2044 2.66443 13.1403 2.75494 13.1083 2.85834L12.275 5.60834C11.585 5.81165 10.9198 6.09115 10.2917 6.44167L7.79167 5.09167C7.6951 5.04039 7.58458 5.02161 7.47649 5.03813C7.3684 5.05464 7.26852 5.10556 7.19167 5.18334L5.16667 7.15834C5.0889 7.23519 5.03797 7.33507 5.02146 7.44316C5.00495 7.55124 5.02373 7.66177 5.07501 7.75834L6.42501 10.2583C6.07505 10.8838 5.79557 11.5462 5.59167 12.2333L2.83334 13.0667C2.72994 13.0986 2.63943 13.1627 2.57498 13.2496C2.51053 13.3366 2.47551 13.4418 2.47501 13.55V16.3667C2.47551 16.4749 2.51053 16.5801 2.57498 16.667C2.63943 16.754 2.72994 16.8181 2.83334 16.85L5.60834 17.6833C5.81446 18.359 6.0939 19.0101 6.44167 19.625L5.07501 22.2417C5.02373 22.3382 5.00495 22.4488 5.02146 22.5569C5.03797 22.6649 5.0889 22.7648 5.16667 22.8417L7.15834 24.8333C7.23519 24.9111 7.33507 24.962 7.44316 24.9786C7.55124 24.9951 7.66177 24.9763 7.75834 24.925L10.3333 23.55C10.9425 23.8787 11.585 24.1413 12.25 24.3333L13.0833 27.1417C13.1153 27.2451 13.1794 27.3356 13.2663 27.4C13.3532 27.4645 13.4585 27.4995 13.5667 27.5H16.3833C16.4916 27.4995 16.5968 27.4645 16.6837 27.4C16.7706 27.3356 16.8347 27.2451 16.8667 27.1417L17.7 24.325C18.3593 24.132 18.9962 23.8694 19.6 23.5417L22.1917 24.925C22.2882 24.9763 22.3988 24.9951 22.5069 24.9786C22.6149 24.962 22.7148 24.9111 22.7917 24.8333L24.7833 22.8417C24.8611 22.7648 24.912 22.6649 24.9286 22.5569C24.9451 22.4488 24.9263 22.3382 24.875 22.2417L23.4917 19.6583C23.8228 19.0523 24.0882 18.4125 24.2833 17.75L27.0917 16.9167C27.1951 16.8847 27.2856 16.8206 27.35 16.7337C27.4145 16.6468 27.4495 16.5416 27.45 16.4333V13.5917C27.4549 13.488 27.428 13.3854 27.3729 13.2975C27.3178 13.2096 27.2371 13.1407 27.1417 13.1V13.1ZM15 19.5833C14.0935 19.5833 13.2074 19.3145 12.4536 18.8109C11.6999 18.3073 11.1125 17.5915 10.7656 16.754C10.4187 15.9165 10.3279 14.9949 10.5047 14.1058C10.6816 13.2168 11.1181 12.4001 11.7591 11.7591C12.4001 11.1181 13.2168 10.6816 14.1058 10.5047C14.9949 10.3279 15.9165 10.4187 16.754 10.7656C17.5915 11.1125 18.3073 11.6999 18.8109 12.4536C19.3145 13.2074 19.5833 14.0935 19.5833 15C19.5833 16.2156 19.1005 17.3814 18.2409 18.2409C17.3814 19.1005 16.2156 19.5833 15 19.5833V19.5833Z" fill="#EDEDED"/>
</svg>
