<svg width="30" height="30" viewBox="0 0 30 30" fill="none" xmlns="http://www.w3.org/2000/svg">
<g clip-path="url(#clip0_6_573)">
<path d="M15 0C11.0218 0 7.20644 1.58035 4.3934 4.3934C1.58035 7.20644 0 11.0218 0 15C0 18.9782 1.58035 22.7936 4.3934 25.6066C7.20644 28.4196 11.0218 30 15 30C18.9782 30 22.7936 28.4196 25.6066 25.6066C28.4196 22.7936 30 18.9782 30 15C30 11.0218 28.4196 7.20644 25.6066 4.3934C22.7936 1.58035 18.9782 0 15 0V0ZM1.85 16.1333H6.03333C6.1 17.65 6.31167 19.1567 6.66667 20.6333H3.06667C2.39534 19.2181 1.98326 17.694 1.85 16.1333ZM16.1333 7.13333V1.98333C17.7395 2.59371 19.0593 3.78271 19.8333 5.31667C20.175 5.895 20.4767 6.49667 20.7333 7.11667L16.1333 7.13333ZM21.5 9.38333C21.8867 10.855 22.1167 12.3633 22.1833 13.8833H16.1333V9.38333H21.5ZM13.8667 1.98333V7.13333H9.26667C9.52377 6.51283 9.82452 5.91132 10.1667 5.33333C10.9374 3.79309 12.2577 2.59777 13.8667 1.98333ZM13.8667 9.38333V13.8833H7.83333C7.9 12.3633 8.13 10.855 8.51667 9.38333H13.8667ZM6.03333 13.8667H1.85C1.98326 12.306 2.39534 10.7819 3.06667 9.36667H6.66667C6.31099 10.8427 6.09889 12.3498 6.03333 13.8667ZM7.83333 16.1333H13.8667V20.6333H8.51667C8.13006 19.1618 7.90099 17.6533 7.83333 16.1333ZM13.8833 22.8V27.95C12.2772 27.3396 10.9574 26.1506 10.1833 24.6167C9.84119 24.0387 9.54044 23.4372 9.28333 22.8167L13.8833 22.8ZM16.1333 27.95V22.8833H20.7333C20.4762 23.5038 20.1755 24.1053 19.8333 24.6833C19.0593 26.2173 17.7395 27.4063 16.1333 28.0167V27.95ZM16.1333 20.55V16.05H22.1667C22.099 17.57 21.8699 19.0785 21.4833 20.55H16.1333ZM23.9833 16.05H28.1667C28.0334 17.6107 27.6213 19.1348 26.95 20.55H23.3333C23.6833 19.1 23.895 17.6217 23.9667 16.1333L23.9833 16.05ZM23.9833 13.8C23.907 12.3105 23.6894 10.8317 23.3333 9.38333H26.9333C27.605 10.8 28.0167 12.3233 28.15 13.8833L23.9833 13.8ZM25.65 7.13333H22.6667C22.1269 5.61717 21.3445 4.19871 20.35 2.93333C22.424 3.8643 24.2255 5.31008 25.5833 7.13333H25.65ZM9.65 2.93333C8.65553 4.19871 7.87313 5.61717 7.33333 7.13333H4.41667C5.77454 5.31008 7.57603 3.8643 9.65 2.93333ZM4.4 22.9333H7.33333C7.87313 24.4495 8.65553 25.868 9.65 27.1333C7.57029 26.1884 5.76824 24.7249 4.41667 22.8833L4.4 22.9333ZM20.3333 27.1333C21.3278 25.868 22.1102 24.4495 22.65 22.9333H25.5833C24.2172 24.7322 22.4164 26.1544 20.35 27.0667L20.3333 27.1333Z" fill="#EDEDED"/>
</g>
<defs>
<clipPath id="clip0_6_573">
<rect width="30" height="30" fill="white"/>
</clipPath>
</defs>
</svg>
