<svg width="30" height="30" viewBox="0 0 30 30" fill="none" xmlns="http://www.w3.org/2000/svg">
<path d="M19.0604 15L26.9206 7.13977C28.0419 6.01852 28.0419 4.20065 26.9206 3.0794C25.7993 1.95815 23.9816 1.95815 22.8602 3.0794L15 10.9396L7.13977 3.0794C6.01852 1.95815 4.20065 1.95815 3.0794 3.0794C1.95815 4.20065 1.95815 6.01852 3.0794 7.13977L10.9396 15L3.0794 22.8602C1.95815 23.9815 1.95815 25.7994 3.0794 26.9206C3.64003 27.4812 4.37479 27.7616 5.10956 27.7616C5.84432 27.7616 6.57915 27.4812 7.13971 26.9206L15 19.0604L22.8602 26.9206C23.4209 27.4812 24.1556 27.7616 24.8904 27.7616C25.6252 27.7616 26.3599 27.4812 26.9206 26.9206C28.0418 25.7994 28.0418 23.9815 26.9206 22.8602L19.0604 15Z" fill="#EDEDED"/>
</svg>
